<mxfile host="65bd71144e">
    <diagram id="L04195jJ_cg58UtbFENb" name="Page-1">
        <mxGraphModel dx="214" dy="633" grid="1" gridSize="10" guides="1" tooltips="1" connect="1" arrows="1" fold="1" page="1" pageScale="1" pageWidth="1100" pageHeight="850" background="#ffffff" math="0" shadow="0">
            <root>
                <mxCell id="0"/>
                <mxCell id="1" parent="0"/>
                <mxCell id="12" style="edgeStyle=none;html=1;strokeColor=#000000;" edge="1" parent="1" source="2" target="3">
                    <mxGeometry relative="1" as="geometry"/>
                </mxCell>
                <mxCell id="2" value="" style="ellipse;" vertex="1" parent="1">
                    <mxGeometry x="230" y="20" width="30" height="30" as="geometry"/>
                </mxCell>
                <mxCell id="3" value="init" style="swimlane;fontStyle=0;align=center;verticalAlign=top;childLayout=stackLayout;horizontal=1;startSize=40;horizontalStack=0;resizeParent=1;resizeParentMax=0;resizeLast=0;collapsible=0;marginBottom=0;html=1;" vertex="1" parent="1">
                    <mxGeometry x="165" y="80" width="160" height="110" as="geometry"/>
                </mxCell>
                <mxCell id="4" value="Starter funktionen, &lt;br&gt;som fetcher data&amp;nbsp;&lt;br&gt;og tager fat i template.&lt;br&gt;Tager 'res' laver det til json." style="text;html=1;strokeColor=none;fillColor=default;align=left;verticalAlign=middle;spacingLeft=4;spacingRight=4;overflow=hidden;rotatable=0;points=[[0,0.5],[1,0.5]];portConstraint=eastwest;" vertex="1" parent="3">
                    <mxGeometry y="40" width="160" height="70" as="geometry"/>
                </mxCell>
                <mxCell id="5" value="handleData" style="swimlane;fontStyle=0;align=center;verticalAlign=top;childLayout=stackLayout;horizontal=1;startSize=40;horizontalStack=0;resizeParent=1;resizeParentMax=0;resizeLast=0;collapsible=0;marginBottom=0;html=1;" vertex="1" parent="1">
                    <mxGeometry x="60" y="210" width="120" height="110" as="geometry"/>
                </mxCell>
                <mxCell id="6" value="Looper dataen&lt;br&gt;og tager den ind&amp;nbsp;&lt;br&gt;til funktionen show" style="text;html=1;strokeColor=none;fillColor=default;align=left;verticalAlign=middle;spacingLeft=4;spacingRight=4;overflow=hidden;rotatable=0;points=[[0,0.5],[1,0.5]];portConstraint=eastwest;" vertex="1" parent="5">
                    <mxGeometry y="40" width="120" height="70" as="geometry"/>
                </mxCell>
                <mxCell id="10" value="showProduct" style="swimlane;fontStyle=0;align=center;verticalAlign=top;childLayout=stackLayout;horizontal=1;startSize=40;horizontalStack=0;resizeParent=1;resizeParentMax=0;resizeLast=0;collapsible=0;marginBottom=0;html=1;" vertex="1" parent="1">
                    <mxGeometry x="220" y="320" width="230" height="110" as="geometry"/>
                </mxCell>
                <mxCell id="11" value="ShowProduct lÃ¦gger data ind i template&amp;nbsp;&lt;br&gt;og kopierer templaten til forskellige&lt;br&gt;grupperinger af dataen" style="text;html=1;strokeColor=none;fillColor=default;align=left;verticalAlign=middle;spacingLeft=4;spacingRight=4;overflow=hidden;rotatable=0;points=[[0,0.5],[1,0.5]];portConstraint=eastwest;" vertex="1" parent="10">
                    <mxGeometry y="40" width="230" height="70" as="geometry"/>
                </mxCell>
                <mxCell id="13" style="edgeStyle=none;html=1;strokeColor=#000000;" edge="1" parent="1" source="4" target="5">
                    <mxGeometry relative="1" as="geometry"/>
                </mxCell>
                <mxCell id="14" style="edgeStyle=none;html=1;entryX=0;entryY=0.25;entryDx=0;entryDy=0;strokeColor=#000000;" edge="1" parent="1" source="6" target="10">
                    <mxGeometry relative="1" as="geometry"/>
                </mxCell>
            </root>
        </mxGraphModel>
    </diagram>
</mxfile>